# xmcd CD database file
#
# Track frame offsets:
#	150
#	23021
#	40840
#	54595
#	80263
#	98160
#	115649
#	130492
#	151022
#	171853
#	198585
#	220823
#	232963
#	251501
#	269488
#	285289
#
# Disc length: 4284 seconds
#
# Revision: 0
# Processed by: cddbd v1.5.2PL0 Copyright (c) Steve Scherf et al.
# Submitted via: CDex 1.51
#
DISCID=cf10ba10
DTITLE=Various Artist - The Nightfly - Cd 1: Yesterday
DYEAR=2007
DGENRE=New Age
TTITLE0=Driza Bone - Real Love
TTITLE1=Ayo - Down On My Knees
TTITLE2=Kings Of Convenience - Misread
TTITLE3=Maxwell - Ascension (Don't Ever Wonder)
TTITLE4=Lura -Anu Raboitas Ka Di Fansa
TTITLE5=Madeleine Peyroux - Dance Me To The End Of Love
TTITLE6=Toco - Outro Lugar
TTITLE7=Carlinhos Brown - Everybodygente
TTITLE8=John Legend - Ordinary People
TTITLE9=Carmen Cuesta - Shape Of My Heart
TTITLE10=Grover Washinton, Jr - Take Five (Take Another Five)
TTITLE11=Ida Sand - Bang Bang
TTITLE12=Regina Belle - Baby Come To Me
TTITLE13=Sarah Mclachlan - Adia
TTITLE14=Vaya Con Dios - I Don't Want To Know
TTITLE15=Rachelle Ferrer - I Can Explain
EXTD=YEAR: 2007
EXTT0=
EXTT1=
EXTT2=
EXTT3=
EXTT4=
EXTT5=
EXTT6=
EXTT7=
EXTT8=
EXTT9=
EXTT10=
EXTT11=
EXTT12=
EXTT13=
EXTT14=
EXTT15=
PLAYORDER=
